# ProBuilder 5.0.6
# https://unity3d.com/unity/features/worldbuilding/probuilder
# 14.01.2023 17:55:26

mtllib ./doorFrame.mtl
o doorFrame

g HouseWall_08_LOD0
v -0.2263487 1.15 0.175
v -0.7187383 1.113104 0.175
v -0.7187383 1.15 0.1381038
v -0.7187383 0.9499999 0.1671611
v -0.7187383 0.9731477 0.175
v -0.2562871 0.9499999 0.175
v -0.6855315 0.9499999 0.16
v -0.7 0.1779307 0.16
v -0.7 0.9499999 0.1455315
v -0.5000001 -1.15 0.1337045
v -0.5262956 -1.15 0.16
v -0.5000001 0.01710522 0.16
v 0.7 0.6166618 0.16
v 0.6829699 0.9499999 0.16
v 0.7 0.9499999 0.1429698
v 0.7187383 1.083559 0.175
v 0.6908848 1.11944 0.175
v 0.7187383 1.13594 0.1586198
v 0.7187383 0.9588286 0.175
v 0.7187383 0.9499999 0.1661713
v 0.3401469 0.9499999 0.175
v 0.028081 1.15 0.175
v 0.01078617 1.132133 0.1658415
v 0.004009485 1.15 0.1061923
v -0.006641224 1.15 0.175
v 0.01671747 1.079077 0.175
v 0.7 0.2734741 -0.16
v 0.7 0.9499999 -0.1412883
v 0.6762906 0.9499999 -0.16
v 0.5670654 -1.15 -0.16
v 0.5816872 -1.15 -0.1499597
v 0.5797234 -0.8994195 -0.16
v 0.5933613 -1.15 -0.16
v 0.06161576 0.964939 -0.175
v 0.08102822 0.964939 -0.1583813
v 0.06345886 1.098672 -0.175
v 0.09931871 0.964939 -0.175
v 0.08234781 0.9499999 -0.1600608
v -0.5000001 0.9499999 -0.1348765
v -0.5251235 0.9499999 -0.16
v -0.5000001 0.2301904 -0.16
v -0.5248595 -1.13157 -0.16
v -0.5441784 -1.15 -0.16
v -0.5159878 -1.15 -0.1443307
v -0.7 0.5999784 -0.16
v -0.6786063 0.9499999 -0.16
v -0.7 0.9499999 -0.1386063
v 0.5000002 -1.15 0.01297933
v 0.5224277 -1.15 -0.01134985
v 0.5000002 -0.8629246 -0.005009476
v 0.5000002 -1.15 -0.03801148
v 0.7187383 0.9499999 -0.1600608
v -0.7187383 0.9499999 -0.1600608
v 0.7187383 0.964939 -0.175
v 0.7187383 1.135061 -0.175
v 0.7187383 1.15 -0.1600608
v 0.7187383 1.15 0.148873
v -0.5000001 0.9499999 0.16
v -0.7 -1.15 0.16
v 0.5000002 0.9499999 0.1434505
v 0.5000002 0.9499999 -0.16
v 0.5165496 0.9499999 0.16
v 0.7 -1.15 -0.16
v 0.5000002 -1.15 -0.16
v 0.5000002 -1.15 0.1434505
v -0.7187383 1.135061 -0.175
v -0.7187383 0.964939 -0.175
v 0.5714893 1.15 0.175
v -0.5000001 -0.6042604 -0.16
v -0.5000001 -1.15 -0.1186118
v 0.5165496 -1.15 0.16
v 0.7 -1.15 0.16
v -0.7187383 1.15 -0.1600608
v -0.7 -1.15 -0.16

vt 0.03921153 0.308965
vt 0.03793326 0.2814269
vt 0.04614051 0.3014834
vt 0.03228256 0.2818852
vt 0.03308451 0.3091429
vt 0.02546517 0.3022138
vt 0.03916379 0.2814269
vt 0.04614051 0.3019006
vt 0.03228256 0.3016445
vt 0.03228256 0.3031248
vt 0.03236932 0.3022138
vt 0.03915533 0.3091429
vt 0.0455505 0.3022138
vt 0.03921153 0.2817957
vt 0.03741014 0.3022138
vt 0.03867313 0.3022138
vt 0.0389513 0.301964
vt 0.03262151 0.3022138
vt 0.04385559 0.3022138
vt 0.04374482 0.3008528
vt 0.03921153 0.3071455
vt 0.03675748 0.3065645
vt 0.04414315 0.3022138
vt 0.03921153 0.3068579
vt 0.03917229 0.2883559
vt 0.04614051 0.2955424
vt 0.03921153 0.288768
vt 0.03228256 0.2932078
vt 0.03228256 0.2924549
vt 0.03326285 0.2925225
vt 0.03228256 0.2916869
vt 0.03280012 0.2920661
vt 0.03743326 0.2921263
vt 0.02927222 0.2952849
vt 0.02921502 0.2955748
vt 0.03921153 0.2958289
vt 0.03921153 0.2944145
vt 0.03912863 0.2952849
vt 0.03228949 0.2938994
vt 0.03026691 0.2952849
vt 0.03139153 0.2956242
vt 0.04539932 0.2952849
vt 0.03921153 0.2878927
vt 0.03228256 0.2990304
vt 0.03228256 0.2985036
vt 0.03322977 0.2986409
vt 0.03228256 0.2979263
vt 0.03228256 0.2955807
vt 0.0253536 0.2955674
vt 0.02535359 0.3017556
vt 0.03280012 0.2952849
vt 0.03869397 0.2952849
vt 0.03921153 0.3018152
vt 0.03921153 0.3022138
vt 0.03228256 0.3091429
vt 0.04008193 0.2952849
vt 0.04572847 0.2952849
vt 0.03978488 0.3022138
vt 0.03228256 0.2883559
vt 0.03228256 0.2952849
vt 0.03869397 0.2883559
vt 0.03280012 0.2883559
vt 0.03793326 0.3091429
vt 0.03228256 0.2961811
vt 0.03921153 0.3027872
vt 0.03228256 0.3027872
vt 0.0253536 0.2952849
vt 0.02868455 0.2952849
vt 0.03170921 0.3022138
vt 0.03308451 0.2814269
vt 0.03921152 0.2821574
vt 0.03228256 0.2814269
vt 0.03137156 0.3022138
vt 0.03090403 0.2952849
vt 0.03921153 0.2890971

vn -0.05291135 0.7061156 0.706117
vn -0.0160531 -0.3207117 0.9470408
vn -0.008134979 -0.162522 0.9866713
vn -0.00405373 -0.08098613 0.996707
vn -0.7070439 0.01324993 0.7070454
vn 0.7070167 -0.01592949 0.7070175
vn 0.7066464 0.0361023 0.7066453
vn 0.1845401 0.1432538 0.9723288
vn 0.1313115 0.2198255 0.9666613
vn 0.2558847 0.4283699 0.8666154
vn 0.01648734 -0.7070131 0.7070083
vn -0.7571555 0.597121 0.2648813
vn 0.6089313 0.2005544 0.7674506
vn 0.7398607 0.662941 0.1145226
vn -0.5338491 0.08553562 0.8412424
vn 0.6193703 0.02170641 -0.7847989
vn 0.5658277 -0.02858275 -0.824028
vn -0.6516504 -0.03546607 -0.7576898
vn 0.6470466 0.06622483 -0.755822
vn 0.6503011 -0.008962433 -0.7596237
vn -0.6670407 -0.07682924 -0.7341437
vn -0.6722821 0.02380036 -0.7399124
vn -0.6617993 -0.1774588 -0.728375
vn 0.643792 0.1414121 -0.7520203
vn 0.7068913 0.02467259 -0.7068917
vn 0.4329206 -0.4538122 -0.7788672
vn -0.7064475 0.04317889 -0.7064471
vn -0.7345951 -0.0424335 -0.6771775
vn -0.7631685 -0.07380064 0.6419715
vn 0 -1 0
vn 1 0 0
vn 0 0 1
vn 0 1 0
vn 0 0 -1
vn -1 0 0
vn 0.05022866 0.1962388 0.9792688
vn -0.7071068 0 0.7071068
vn 0.1442967 0.5637531 0.813241
vn 0 -0.7071092 -0.7071043
vn 0 0.7071093 -0.7071043
vn 0.8486011 -0.04000635 -0.5275184

usemtl MedievalTownLite_MAIN
f 3/3/1 2/2/1 1/1/1
f 6/6/4 5/5/3 4/4/2
f 9/8/5 8/7/5 7/1/5
f 12/11/6 11/10/6 10/9/6
f 15/14/7 14/13/7 13/12/7
f 18/17/10 17/16/9 16/15/8
f 21/11/11 20/11/11 19/18/11
f 24/20/12 23/19/12 22/19/12
f 26/22/13 23/21/13 25/21/13
f 24/20/14 25/23/14 23/19/14
f 26/22/15 22/24/15 23/21/15
f 29/27/16 28/26/16 27/25/16
f 32/30/17 31/29/17 30/28/17
f 32/30/18 33/31/18 31/29/18
f 41/38/25 40/37/25 39/36/25
f 44/41/26 43/40/26 42/39/26
f 47/43/27 46/42/27 45/25/27
f 50/46/28 49/45/28 48/44/28
f 50/46/29 51/47/29 49/45/29
f 38/35/30 52/48/30 20/11/30
f 20/11/31 52/48/31 54/51/31
f 54/51/31 19/18/31 20/11/31
f 56/36/31 57/53/31 18/17/31
f 12/11/32 58/54/32 7/1/32
f 7/1/32 8/12/32 59/55/32
f 40/56/33 46/42/33 47/26/33
f 47/26/33 39/36/33 40/56/33
f 9/8/33 7/13/33 58/54/33
f 29/57/33 61/38/33 60/53/33
f 27/25/34 63/59/34 33/31/34
f 33/31/34 32/30/34 61/38/34
f 64/60/35 51/47/35 50/46/35
f 36/33/34 66/61/34 55/52/34
f 19/18/32 16/15/8 17/16/9
f 26/22/32 6/55/4 21/11/32
f 69/60/31 41/38/31 12/11/31
f 64/60/30 30/40/30 31/34/30
f 72/6/30 49/45/30 51/47/30
f 72/6/30 71/69/30 65/9/30
f 72/55/32 13/12/32 14/1/32
f 22/19/33 68/54/33 57/53/33
f 74/67/30 43/40/30 44/41/30
f 42/39/34 43/28/34 40/37/34
f 74/59/34 45/25/34 46/75/34
f 34/32/19 36/33/20 35/32/19
f 35/32/19 38/35/24 34/32/19
f 37/34/21 38/35/22 35/34/21
f 35/34/21 36/33/23 37/34/21
f 4/50/30 53/49/30 38/35/30
f 38/35/30 20/11/30 4/50/30
f 4/50/30 20/11/30 21/11/30
f 21/11/30 6/6/30 4/50/30
f 55/52/31 16/15/31 19/18/31
f 19/18/31 54/51/31 55/52/31
f 56/36/31 18/17/31 16/15/31
f 16/15/31 55/52/31 56/36/31
f 59/55/32 11/10/32 12/11/32
f 12/11/32 7/1/32 59/55/32
f 39/36/33 47/26/33 9/8/33
f 9/8/33 58/54/33 39/36/33
f 15/8/33 28/26/33 29/57/33
f 29/57/33 60/53/33 15/8/33
f 62/58/33 14/13/33 15/8/33
f 15/8/33 60/53/33 62/58/33
f 61/38/34 29/27/34 27/25/34
f 27/25/34 33/31/34 61/38/34
f 61/38/34 32/30/34 30/28/34
f 30/28/34 64/60/34 61/38/34
f 48/44/35 65/9/35 60/53/35
f 60/53/35 50/46/35 48/44/35
f 50/46/35 60/53/35 61/38/35
f 61/38/35 64/60/35 50/46/35
f 55/52/34 54/51/34 37/32/34
f 37/32/34 36/33/34 55/52/34
f 66/61/34 36/33/34 34/32/34
f 34/32/34 67/62/34 66/61/34
f 68/54/36 21/11/32 19/18/32
f 19/18/32 17/16/9 68/54/36
f 21/11/32 68/54/36 22/24/32
f 22/24/32 26/22/32 21/11/32
f 6/55/4 26/22/32 25/21/32
f 25/21/32 1/1/32 6/55/4
f 6/55/4 1/1/32 2/63/32
f 2/63/32 5/5/3 6/55/4
f 10/9/31 70/64/31 69/60/31
f 69/60/31 12/11/31 10/9/31
f 39/36/31 58/54/31 12/11/31
f 12/11/31 41/38/31 39/36/31
f 71/66/37 62/65/37 60/53/37
f 60/53/37 65/9/37 71/66/37
f 33/68/30 63/67/30 72/6/30
f 72/6/30 31/34/30 33/68/30
f 31/34/30 72/6/30 51/47/30
f 51/47/30 64/60/30 31/34/30
f 65/9/30 48/44/30 49/45/30
f 49/45/30 72/6/30 65/9/30
f 62/65/32 71/66/32 72/55/32
f 72/55/32 14/1/32 62/65/32
f 56/36/33 73/26/33 3/3/33
f 3/3/33 24/20/33 56/36/33
f 57/53/33 56/36/33 24/20/33
f 24/20/33 22/19/33 57/53/33
f 1/13/33 25/23/33 24/20/33
f 24/20/33 3/3/33 1/13/33
f 18/17/10 57/53/38 68/54/36
f 68/54/36 17/16/9 18/17/10
f 37/34/39 54/60/39 52/48/39
f 52/48/39 38/35/39 37/34/39
f 34/34/39 38/35/39 53/49/39
f 53/49/39 67/67/39 34/34/39
f 55/52/40 66/61/40 73/25/40
f 73/25/40 56/38/40 55/52/40
f 53/59/35 4/4/35 5/70/35
f 5/70/35 67/62/35 53/59/35
f 2/2/35 66/61/35 67/62/35
f 67/62/35 5/70/35 2/2/35
f 66/61/35 2/2/35 3/71/35
f 3/71/35 73/25/35 66/61/35
f 72/72/31 63/59/31 27/25/31
f 27/25/31 13/7/31 72/72/31
f 13/7/31 27/25/31 28/25/31
f 28/25/31 15/14/31 13/7/31
f 70/64/30 59/6/30 74/67/30
f 74/67/30 44/41/30 70/64/30
f 59/6/30 70/64/30 10/9/30
f 10/9/30 11/73/30 59/6/30
f 44/41/41 42/74/41 69/60/41
f 69/60/41 70/64/41 44/41/41
f 74/59/35 59/72/35 8/7/35
f 8/7/35 45/25/35 74/59/35
f 45/25/35 8/7/35 9/14/35
f 9/14/35 47/43/35 45/25/35
f 41/38/34 69/60/34 42/39/34
f 42/39/34 40/37/34 41/38/34
f 74/59/34 46/75/34 40/37/34
f 40/37/34 43/28/34 74/59/34

